<svg version="1.1" id="Icons" xmlns="http://www.w3.org/2000/svg" xmlns:xlink="http://www.w3.org/1999/xlink" viewBox="-6.72 -6.72 45.44 45.44" xml:space="preserve" fill="#b60c0c" stroke="#b60c0c" transform="rotate(0)matrix(1, 0, 0, 1, 0, 0)"><g id="SVGRepo_bgCarrier" stroke-width="0" transform="translate(3.6799999999999997,3.6799999999999997), scale(0.77)"><path transform="translate(-6.72, -6.72), scale(2.84)" fill="#d7ae09" d="M9.166.33a2.25 2.25 0 00-2.332 0l-5.25 3.182A2.25 2.25 0 00.5 5.436v5.128a2.25 2.25 0 001.084 1.924l5.25 3.182a2.25 2.25 0 002.332 0l5.25-3.182a2.25 2.25 0 001.084-1.924V5.436a2.25 2.25 0 00-1.084-1.924L9.166.33z" strokewidth="0"></path></g><g id="SVGRepo_tracerCarrier" stroke-linecap="round" stroke-linejoin="round" stroke="#000000" stroke-width="4.4159999999999995"> <style type="text/css"> .st0{fill:none;stroke:#000000;stroke-width:0.00032;stroke-linecap:round;stroke-linejoin:round;stroke-miterlimit:10;} </style> <path d="M31,16h-2v-2c0-0.6-0.4-1-1-1h-2v-2c0-0.6-0.4-1-1-1h-2V8h2c0.6,0,1-0.4,1-1V4c0-0.6-0.4-1-1-1h-3c-0.6,0-1,0.4-1,1v2h-2 c-0.6,0-1,0.4-1,1v3h-4V7c0-0.6-0.4-1-1-1h-2V4c0-0.6-0.4-1-1-1H7C6.4,3,6,3.4,6,4v3c0,0.6,0.4,1,1,1h2v2H7c-0.6,0-1,0.4-1,1v2H4 c-0.6,0-1,0.4-1,1v2H1c-0.6,0-1,0.4-1,1v9c0,0.6,0.4,1,1,1h3c0.6,0,1-0.4,1-1v-5h1v5c0,0.6,0.4,1,1,1h2v2c0,0.6,0.4,1,1,1h4 c0.6,0,1-0.4,1-1v-3c0-0.6-0.4-1-1-1h-3v-1h10v1h-3c-0.6,0-1,0.4-1,1v3c0,0.6,0.4,1,1,1h4c0.6,0,1-0.4,1-1v-2h2c0.6,0,1-0.4,1-1v-5 h1v5c0,0.6,0.4,1,1,1h3c0.6,0,1-0.4,1-1v-9C32,16.4,31.6,16,31,16z M14,19c0,0.6-0.4,1-1,1h-3c-0.6,0-1-0.4-1-1v-3c0-0.6,0.4-1,1-1 h3c0.6,0,1,0.4,1,1V19z M23,19c0,0.6-0.4,1-1,1h-3c-0.6,0-1-0.4-1-1v-3c0-0.6,0.4-1,1-1h3c0.6,0,1,0.4,1,1V19z"></path> </g><g id="SVGRepo_iconCarrier"> <style type="text/css"> .st0{fill:none;stroke:#000000;stroke-width:0.00032;stroke-linecap:round;stroke-linejoin:round;stroke-miterlimit:10;} </style> <path d="M31,16h-2v-2c0-0.6-0.4-1-1-1h-2v-2c0-0.6-0.4-1-1-1h-2V8h2c0.6,0,1-0.4,1-1V4c0-0.6-0.4-1-1-1h-3c-0.6,0-1,0.4-1,1v2h-2 c-0.6,0-1,0.4-1,1v3h-4V7c0-0.6-0.4-1-1-1h-2V4c0-0.6-0.4-1-1-1H7C6.4,3,6,3.4,6,4v3c0,0.6,0.4,1,1,1h2v2H7c-0.6,0-1,0.4-1,1v2H4 c-0.6,0-1,0.4-1,1v2H1c-0.6,0-1,0.4-1,1v9c0,0.6,0.4,1,1,1h3c0.6,0,1-0.4,1-1v-5h1v5c0,0.6,0.4,1,1,1h2v2c0,0.6,0.4,1,1,1h4 c0.6,0,1-0.4,1-1v-3c0-0.6-0.4-1-1-1h-3v-1h10v1h-3c-0.6,0-1,0.4-1,1v3c0,0.6,0.4,1,1,1h4c0.6,0,1-0.4,1-1v-2h2c0.6,0,1-0.4,1-1v-5 h1v5c0,0.6,0.4,1,1,1h3c0.6,0,1-0.4,1-1v-9C32,16.4,31.6,16,31,16z M14,19c0,0.6-0.4,1-1,1h-3c-0.6,0-1-0.4-1-1v-3c0-0.6,0.4-1,1-1 h3c0.6,0,1,0.4,1,1V19z M23,19c0,0.6-0.4,1-1,1h-3c-0.6,0-1-0.4-1-1v-3c0-0.6,0.4-1,1-1h3c0.6,0,1,0.4,1,1V19z"></path> </g></svg>